<svg aria-roledescription="er" role="graphics-document document" viewBox="0 0 1198.7237548828125 898" style="max-width: 1198.72px; background-color: white;" xmlns:xlink="http://www.w3.org/1999/xlink" xmlns="http://www.w3.org/2000/svg" width="100%" id="my-svg"><style>#my-svg{font-family:"trebuchet ms",verdana,arial,sans-serif;font-size:16px;fill:#000000;}#my-svg .error-icon{fill:#552222;}#my-svg .error-text{fill:#552222;stroke:#552222;}#my-svg .edge-thickness-normal{stroke-width:2px;}#my-svg .edge-thickness-thick{stroke-width:3.5px;}#my-svg .edge-pattern-solid{stroke-dasharray:0;}#my-svg .edge-pattern-dashed{stroke-dasharray:3;}#my-svg .edge-pattern-dotted{stroke-dasharray:2;}#my-svg .marker{fill:#666;stroke:#666;}#my-svg .marker.cross{stroke:#666;}#my-svg svg{font-family:"trebuchet ms",verdana,arial,sans-serif;font-size:16px;}#my-svg .entityBox{fill:#eee;stroke:#999;}#my-svg .attributeBoxOdd{fill:#ffffff;stroke:#999;}#my-svg .attributeBoxEven{fill:#f2f2f2;stroke:#999;}#my-svg .relationshipLabelBox{fill:hsl(-160, 0%, 93.3333333333%);opacity:0.7;background-color:hsl(-160, 0%, 93.3333333333%);}#my-svg .relationshipLabelBox rect{opacity:0.5;}#my-svg .relationshipLine{stroke:#666;}#my-svg .entityTitleText{text-anchor:middle;font-size:18px;fill:#000000;}#my-svg #MD_PARENT_START{fill:#f5f5f5!important;stroke:#666!important;stroke-width:1;}#my-svg #MD_PARENT_END{fill:#f5f5f5!important;stroke:#666!important;stroke-width:1;}#my-svg :root{--mermaid-font-family:"trebuchet ms",verdana,arial,sans-serif;}</style><g/><defs><marker orient="auto" markerHeight="240" markerWidth="190" refY="7" refX="0" id="MD_PARENT_START"><path d="M 18,7 L9,13 L1,7 L9,1 Z"/></marker></defs><defs><marker orient="auto" markerHeight="28" markerWidth="20" refY="7" refX="19" id="MD_PARENT_END"><path d="M 18,7 L9,13 L1,7 L9,1 Z"/></marker></defs><defs><marker orient="auto" markerHeight="18" markerWidth="18" refY="9" refX="0" id="ONLY_ONE_START"><path d="M9,0 L9,18 M15,0 L15,18" fill="none" stroke="gray"/></marker></defs><defs><marker orient="auto" markerHeight="18" markerWidth="18" refY="9" refX="18" id="ONLY_ONE_END"><path d="M3,0 L3,18 M9,0 L9,18" fill="none" stroke="gray"/></marker></defs><defs><marker orient="auto" markerHeight="18" markerWidth="30" refY="9" refX="0" id="ZERO_OR_ONE_START"><circle r="6" cy="9" cx="21" fill="white" stroke="gray"/><path d="M9,0 L9,18" fill="none" stroke="gray"/></marker></defs><defs><marker orient="auto" markerHeight="18" markerWidth="30" refY="9" refX="30" id="ZERO_OR_ONE_END"><circle r="6" cy="9" cx="9" fill="white" stroke="gray"/><path d="M21,0 L21,18" fill="none" stroke="gray"/></marker></defs><defs><marker orient="auto" markerHeight="36" markerWidth="45" refY="18" refX="18" id="ONE_OR_MORE_START"><path d="M0,18 Q 18,0 36,18 Q 18,36 0,18 M42,9 L42,27" fill="none" stroke="gray"/></marker></defs><defs><marker orient="auto" markerHeight="36" markerWidth="45" refY="18" refX="27" id="ONE_OR_MORE_END"><path d="M3,9 L3,27 M9,18 Q27,0 45,18 Q27,36 9,18" fill="none" stroke="gray"/></marker></defs><defs><marker orient="auto" markerHeight="36" markerWidth="57" refY="18" refX="18" id="ZERO_OR_MORE_START"><circle r="6" cy="18" cx="48" fill="white" stroke="gray"/><path d="M0,18 Q18,0 36,18 Q18,36 0,18" fill="none" stroke="gray"/></marker></defs><defs><marker orient="auto" markerHeight="36" markerWidth="57" refY="18" refX="39" id="ZERO_OR_MORE_END"><circle r="6" cy="18" cx="9" fill="white" stroke="gray"/><path d="M21,18 Q39,0 57,18 Q39,36 21,18" fill="none" stroke="gray"/></marker></defs><path style="stroke: gray; fill: none;" marker-start="url(#ZERO_OR_ONE_START)" marker-end="url(#ZERO_OR_ONE_END)" d="M363.20298767089844,156.74200805331134L309.8540331522624,177.7850067110928C256.5050786336263,198.82800536887422,149.80716959635416,240.91400268443712,100.09722526694662,270.2903346755519C50.38728093753909,299.6666666666667,57.665301315996146,316.3333333333333,61.30431150522467,324.6666666666667L64.9433216944532,333" class="er relationshipLine"/><path style="stroke: gray; fill: none;" marker-start="url(#ZERO_OR_MORE_START)" marker-end="url(#ZERO_OR_MORE_END)" d="M487.11815458060073,233L490.81491188804944,241.33333333333334C494.51166919549814,249.66666666666666,501.90518381039556,266.3333333333333,509.24095130707275,283C516.5767188037499,299.6666666666667,523.854739182207,316.3333333333333,527.4937493714356,324.6666666666667L531.1327595606641,333" class="er relationshipLine"/><path style="stroke: gray; fill: none;" marker-start="url(#ZERO_OR_MORE_START)" marker-end="url(#ZERO_OR_MORE_END)" d="M363.20298767089844,199.19306601974452L348.4708887736003,213.1608883497871C333.73878987630206,227.12871067982965,304.27459208170575,255.06435533991484,289.54249318440753,288.11551100329075C274.8103942871094,321.1666666666667,274.8103942871094,359.3333333333333,274.8103942871094,397.5C274.8103942871094,435.6666666666667,274.8103942871094,473.8333333333333,274.8103942871094,512C274.8103942871094,550.1666666666666,274.8103942871094,588.3333333333334,274.8103942871094,626.5C274.8103942871094,664.6666666666666,274.8103942871094,702.8333333333334,381.86139424641925,735.8382162427943C488.9123942057292,768.843099152255,703.014394124349,796.6861983045101,810.0653940836588,810.6077478806377L917.1163940429688,824.5292974567652" class="er relationshipLine"/><path style="stroke: gray; fill: none;" marker-start="url(#ZERO_OR_MORE_START)" marker-end="url(#ZERO_OR_MORE_END)" d="M395.59735975174095,233L392.1328655076357,241.33333333333334C388.6683712635304,249.66666666666666,381.7393827753199,266.3333333333333,378.27488853121463,293.75C374.8103942871094,321.1666666666667,374.8103942871094,359.3333333333333,374.8103942871094,397.5C374.8103942871094,435.6666666666667,374.8103942871094,473.8333333333333,411.3064956665039,508.45260354504035C447.80259704589844,543.0718737567473,520.7947998046875,574.1437475134945,557.290901184082,589.6796843918682L593.7870025634766,605.2156212702419" class="er relationshipLine"/><path style="stroke: gray; fill: none;" marker-start="url(#ZERO_OR_MORE_START)" marker-end="url(#ZERO_OR_MORE_END)" d="M121.27519942371086,333L124.91420961293939,324.6666666666667C128.55321980216792,316.3333333333333,135.83124018062497,299.6666666666667,176.15253822182294,271.9887647327932C216.47383626302084,244.31086279891974,289.83841196695965,205.6217255978395,326.520699818929,186.27715699729936L363.20298767089844,166.93258839675923" class="er relationshipLine"/><path style="stroke: gray; fill: none;" marker-start="url(#ZERO_OR_ONE_START)" marker-end="url(#ZERO_OR_ONE_END)" d="M587.4646372899218,333L591.1036474791504,324.6666666666667C594.7426576683789,316.3333333333333,602.020678046836,299.6666666666667,590.2006059505013,277.05359352033446C578.3805338541666,254.4405203740023,547.4623692830404,225.88104074800458,532.0032869974772,211.60130093500572L516.5442047119141,197.32156112200687" class="er relationshipLine"/><path style="stroke: gray; fill: none;" marker-start="url(#ZERO_OR_MORE_START)" marker-end="url(#ZERO_OR_MORE_END)" d="M490.3220901489258,412.70492870613674L415.24734115600586,429.2541072551139C340.17259216308594,445.8032858040912,190.0230941772461,478.9016429020456,118.5873553735547,503.78415478435613C47.15161656986331,528.6666666666666,54.429636948320365,545.3333333333334,58.0686471375489,553.6666666666666L61.70765732677743,562" class="er relationshipLine"/><path style="stroke: gray; fill: none;" marker-start="url(#ZERO_OR_MORE_START)" marker-end="url(#ZERO_OR_MORE_END)" d="M628.2753067016602,418.0411232608147L680.8605893452963,433.7009360506789C733.4458719889323,449.36074884054307,838.6164372762045,480.68037442027156,896.9314487629408,506.4235205434691C955.2464602496774,532.1666666666666,966.7059179358781,552.3333333333334,972.4356467789785,562.4166666666666L978.1653756220788,572.5" class="er relationshipLine"/><path style="stroke: gray; fill: none;" marker-start="url(#ZERO_OR_MORE_START)" marker-end="url(#ZERO_OR_MORE_END)" d="M559.298698425293,462L559.298698425293,470.3333333333333C559.298698425293,478.6666666666667,559.298698425293,495.3333333333333,570.6129982516582,519C581.9272980780233,542.6666666666666,604.5558977307538,573.3333333333334,615.870197557119,588.6666666666666L627.1844973834842,604" class="er relationshipLine"/><path style="stroke: gray; fill: none;" marker-start="url(#ZERO_OR_ONE_START)" marker-end="url(#ONLY_ONE_END)" d="M118.03953505603508,562L121.6785452452636,553.6666666666666C125.31755543449214,545.3333333333334,132.5955758129492,528.6666666666666,194.642668328431,504.3883519987954C256.6897608439128,480.1100373309241,373.50592549641925,448.22007466184823,431.91400782267254,432.2750933273103L490.3220901489258,416.3301119927723" class="er relationshipLine"/><path style="stroke: gray; fill: none;" marker-start="url(#ZERO_OR_MORE_START)" marker-end="url(#ZERO_OR_MORE_END)" d="M1017.049034649038,791L1021.5053626347777,782.6666666666666C1025.9616906205176,774.3333333333334,1034.874346591997,757.6666666666666,1036.253998762904,739.25C1037.6336509338114,720.8333333333334,1031.480299304146,700.6666666666666,1028.4036234893133,690.5833333333334L1025.3269476744806,680.5" class="er relationshipLine"/><path style="stroke: gray; fill: none;" marker-start="url(#ZERO_OR_ONE_START)" marker-end="url(#ZERO_OR_ONE_END)" d="M1070.4576110839844,795.7370173460139L1088.5019760131836,786.6141811216781C1106.5463409423828,777.4913448973426,1142.6350708007812,759.2456724486714,1160.6794357299805,731.0395028910024C1178.7238006591797,702.8333333333334,1178.7238006591797,664.6666666666666,1178.7238006591797,626.5C1178.7238006591797,588.3333333333334,1178.7238006591797,550.1666666666666,1178.7238006591797,512C1178.7238006591797,473.8333333333333,1178.7238006591797,435.6666666666667,1178.7238006591797,397.5C1178.7238006591797,359.3333333333333,1178.7238006591797,321.1666666666667,1068.3605346679688,278.7066718352612C957.9972686767578,236.24667700385575,737.2707366943359,189.49335400771153,626.907470703125,166.1166925096394L516.5442047119141,142.74003101156728" class="er relationshipLine"/><path style="stroke: gray; fill: none;" marker-start="url(#ZERO_OR_ONE_START)" marker-end="url(#ONLY_ONE_END)" d="M1025.3269476744806,572.5L1028.4036234893133,562.4166666666666C1031.480299304146,552.3333333333334,1037.6336509338114,532.1666666666666,971.4583774383412,505.7168944981699C905.2831039428711,479.2671223296731,766.7792053222656,446.5342446593461,697.5272560119629,430.1678058241826L628.2753067016602,413.80136698901913" class="er relationshipLine"/><path style="stroke: gray; fill: none;" marker-start="url(#ZERO_OR_ONE_START)" marker-end="url(#ZERO_OR_ONE_END)" d="M938.9766082763672,649.3879768091851L892.3636233011881,664.6566473409877C845.7506383260092,679.9253178727901,752.524668375651,710.4626589363951,748.8812993367513,737.7426884315361C745.2379302978516,765.0227179266773,831.1771621704102,789.0454358533547,874.1467781066895,801.0567948166931L917.1163940429688,813.0681537800318" class="er relationshipLine"/><path style="stroke: gray; fill: none;" marker-start="url(#ZERO_OR_MORE_START)" marker-end="url(#ZERO_OR_MORE_END)" d="M663.4376575853106,604L676.8292150816716,588.6666666666666C690.2207725780327,573.3333333333334,717.0038875707546,542.6666666666666,730.3954450671157,508.25C743.7870025634766,473.8333333333333,743.7870025634766,435.6666666666667,743.7870025634766,397.5C743.7870025634766,359.3333333333333,743.7870025634766,321.1666666666667,705.9132029215494,282.58024620493904C668.0394032796224,243.99382574321143,592.2918039957682,204.98765148642283,554.4180043538412,185.4845643580285L516.5442047119141,165.98147722963424" class="er relationshipLine"/><path style="stroke: gray; fill: none;" marker-start="url(#ZERO_OR_MORE_START)" marker-end="url(#ZERO_OR_MORE_END)" d="M683.0883126071446,604L709.8714275998667,588.6666666666666C736.6545425925887,573.3333333333334,790.2207725780327,542.6666666666666,781.0852715937853,512.8769164278237C771.9497706095377,483.0871661889808,700.112538655599,454.17433237796155,664.1939226786295,439.717915472452L628.2753067016602,425.26149856694235" class="er relationshipLine"/><g transform="translate(363.20298767089844,20 )" id="entity-Form-98b736a9-9996-5ea8-a02c-78b8a2412db0"><rect height="213" width="153.34121704101562" y="0" x="0" class="er entityBox"/><text style="dominant-baseline: middle; text-anchor: middle; font-size: 12px;" transform="translate(76.67060852050781,12)" y="0" x="0" id="text-entity-Form-98b736a9-9996-5ea8-a02c-78b8a2412db0" class="er entityLabel">Form</text><rect height="21" width="54.113128662109375" y="24" x="0" class="er attributeBoxOdd"/><text style="dominant-baseline: middle; font-size: 10.2px;" transform="translate(5,34.5)" y="0" x="0" id="text-entity-Form-98b736a9-9996-5ea8-a02c-78b8a2412db0-attr-1-type" class="er entityLabel">String</text><rect height="21" width="53.774871826171875" y="24" x="54.113128662109375" class="er attributeBoxOdd"/><text style="dominant-baseline: middle; font-size: 10.2px;" transform="translate(59.113128662109375,34.5)" y="0" x="0" id="text-entity-Form-98b736a9-9996-5ea8-a02c-78b8a2412db0-attr-1-name" class="er entityLabel">id</text><rect height="21" width="45.453216552734375" y="24" x="107.88800048828125" class="er attributeBoxOdd"/><text style="dominant-baseline: middle; font-size: 10.2px;" transform="translate(112.88800048828125,34.5)" y="0" x="0" id="text-entity-Form-98b736a9-9996-5ea8-a02c-78b8a2412db0-attr-1-comment" class="er entityLabel">PK</text><rect height="21" width="54.113128662109375" y="45" x="0" class="er attributeBoxEven"/><text style="dominant-baseline: middle; font-size: 10.2px;" transform="translate(5,55.5)" y="0" x="0" id="text-entity-Form-98b736a9-9996-5ea8-a02c-78b8a2412db0-attr-2-type" class="er entityLabel">String</text><rect height="21" width="53.774871826171875" y="45" x="54.113128662109375" class="er attributeBoxEven"/><text style="dominant-baseline: middle; font-size: 10.2px;" transform="translate(59.113128662109375,55.5)" y="0" x="0" id="text-entity-Form-98b736a9-9996-5ea8-a02c-78b8a2412db0-attr-2-name" class="er entityLabel">name</text><rect height="21" width="45.453216552734375" y="45" x="107.88800048828125" class="er attributeBoxEven"/><text style="dominant-baseline: middle; font-size: 10.2px;" transform="translate(112.88800048828125,55.5)" y="0" x="0" id="text-entity-Form-98b736a9-9996-5ea8-a02c-78b8a2412db0-attr-2-comment" class="er entityLabel"/><rect height="21" width="54.113128662109375" y="66" x="0" class="er attributeBoxOdd"/><text style="dominant-baseline: middle; font-size: 10.2px;" transform="translate(5,76.5)" y="0" x="0" id="text-entity-Form-98b736a9-9996-5ea8-a02c-78b8a2412db0-attr-3-type" class="er entityLabel">String</text><rect height="21" width="53.774871826171875" y="66" x="54.113128662109375" class="er attributeBoxOdd"/><text style="dominant-baseline: middle; font-size: 10.2px;" transform="translate(59.113128662109375,76.5)" y="0" x="0" id="text-entity-Form-98b736a9-9996-5ea8-a02c-78b8a2412db0-attr-3-name" class="er entityLabel">about</text><rect height="21" width="45.453216552734375" y="66" x="107.88800048828125" class="er attributeBoxOdd"/><text style="dominant-baseline: middle; font-size: 10.2px;" transform="translate(112.88800048828125,76.5)" y="0" x="0" id="text-entity-Form-98b736a9-9996-5ea8-a02c-78b8a2412db0-attr-3-comment" class="er entityLabel">nullable</text><rect height="21" width="54.113128662109375" y="87" x="0" class="er attributeBoxEven"/><text style="dominant-baseline: middle; font-size: 10.2px;" transform="translate(5,97.5)" y="0" x="0" id="text-entity-Form-98b736a9-9996-5ea8-a02c-78b8a2412db0-attr-4-type" class="er entityLabel">Boolean</text><rect height="21" width="53.774871826171875" y="87" x="54.113128662109375" class="er attributeBoxEven"/><text style="dominant-baseline: middle; font-size: 10.2px;" transform="translate(59.113128662109375,97.5)" y="0" x="0" id="text-entity-Form-98b736a9-9996-5ea8-a02c-78b8a2412db0-attr-4-name" class="er entityLabel">active</text><rect height="21" width="45.453216552734375" y="87" x="107.88800048828125" class="er attributeBoxEven"/><text style="dominant-baseline: middle; font-size: 10.2px;" transform="translate(112.88800048828125,97.5)" y="0" x="0" id="text-entity-Form-98b736a9-9996-5ea8-a02c-78b8a2412db0-attr-4-comment" class="er entityLabel"/><rect height="21" width="54.113128662109375" y="108" x="0" class="er attributeBoxOdd"/><text style="dominant-baseline: middle; font-size: 10.2px;" transform="translate(5,118.5)" y="0" x="0" id="text-entity-Form-98b736a9-9996-5ea8-a02c-78b8a2412db0-attr-5-type" class="er entityLabel">String</text><rect height="21" width="53.774871826171875" y="108" x="54.113128662109375" class="er attributeBoxOdd"/><text style="dominant-baseline: middle; font-size: 10.2px;" transform="translate(59.113128662109375,118.5)" y="0" x="0" id="text-entity-Form-98b736a9-9996-5ea8-a02c-78b8a2412db0-attr-5-name" class="er entityLabel">logoUrl</text><rect height="21" width="45.453216552734375" y="108" x="107.88800048828125" class="er attributeBoxOdd"/><text style="dominant-baseline: middle; font-size: 10.2px;" transform="translate(112.88800048828125,118.5)" y="0" x="0" id="text-entity-Form-98b736a9-9996-5ea8-a02c-78b8a2412db0-attr-5-comment" class="er entityLabel">nullable</text><rect height="21" width="54.113128662109375" y="129" x="0" class="er attributeBoxEven"/><text style="dominant-baseline: middle; font-size: 10.2px;" transform="translate(5,139.5)" y="0" x="0" id="text-entity-Form-98b736a9-9996-5ea8-a02c-78b8a2412db0-attr-6-type" class="er entityLabel">Boolean</text><rect height="21" width="53.774871826171875" y="129" x="54.113128662109375" class="er attributeBoxEven"/><text style="dominant-baseline: middle; font-size: 10.2px;" transform="translate(59.113128662109375,139.5)" y="0" x="0" id="text-entity-Form-98b736a9-9996-5ea8-a02c-78b8a2412db0-attr-6-name" class="er entityLabel">isPublic</text><rect height="21" width="45.453216552734375" y="129" x="107.88800048828125" class="er attributeBoxEven"/><text style="dominant-baseline: middle; font-size: 10.2px;" transform="translate(112.88800048828125,139.5)" y="0" x="0" id="text-entity-Form-98b736a9-9996-5ea8-a02c-78b8a2412db0-attr-6-comment" class="er entityLabel"/><rect height="21" width="54.113128662109375" y="150" x="0" class="er attributeBoxOdd"/><text style="dominant-baseline: middle; font-size: 10.2px;" transform="translate(5,160.5)" y="0" x="0" id="text-entity-Form-98b736a9-9996-5ea8-a02c-78b8a2412db0-attr-7-type" class="er entityLabel">DateTime</text><rect height="21" width="53.774871826171875" y="150" x="54.113128662109375" class="er attributeBoxOdd"/><text style="dominant-baseline: middle; font-size: 10.2px;" transform="translate(59.113128662109375,160.5)" y="0" x="0" id="text-entity-Form-98b736a9-9996-5ea8-a02c-78b8a2412db0-attr-7-name" class="er entityLabel">createdAt</text><rect height="21" width="45.453216552734375" y="150" x="107.88800048828125" class="er attributeBoxOdd"/><text style="dominant-baseline: middle; font-size: 10.2px;" transform="translate(112.88800048828125,160.5)" y="0" x="0" id="text-entity-Form-98b736a9-9996-5ea8-a02c-78b8a2412db0-attr-7-comment" class="er entityLabel"/><rect height="21" width="54.113128662109375" y="171" x="0" class="er attributeBoxEven"/><text style="dominant-baseline: middle; font-size: 10.2px;" transform="translate(5,181.5)" y="0" x="0" id="text-entity-Form-98b736a9-9996-5ea8-a02c-78b8a2412db0-attr-8-type" class="er entityLabel">DateTime</text><rect height="21" width="53.774871826171875" y="171" x="54.113128662109375" class="er attributeBoxEven"/><text style="dominant-baseline: middle; font-size: 10.2px;" transform="translate(59.113128662109375,181.5)" y="0" x="0" id="text-entity-Form-98b736a9-9996-5ea8-a02c-78b8a2412db0-attr-8-name" class="er entityLabel">endedAt</text><rect height="21" width="45.453216552734375" y="171" x="107.88800048828125" class="er attributeBoxEven"/><text style="dominant-baseline: middle; font-size: 10.2px;" transform="translate(112.88800048828125,181.5)" y="0" x="0" id="text-entity-Form-98b736a9-9996-5ea8-a02c-78b8a2412db0-attr-8-comment" class="er entityLabel">nullable</text><rect height="21" width="54.113128662109375" y="192" x="0" class="er attributeBoxOdd"/><text style="dominant-baseline: middle; font-size: 10.2px;" transform="translate(5,202.5)" y="0" x="0" id="text-entity-Form-98b736a9-9996-5ea8-a02c-78b8a2412db0-attr-9-type" class="er entityLabel">String</text><rect height="21" width="53.774871826171875" y="192" x="54.113128662109375" class="er attributeBoxOdd"/><text style="dominant-baseline: middle; font-size: 10.2px;" transform="translate(59.113128662109375,202.5)" y="0" x="0" id="text-entity-Form-98b736a9-9996-5ea8-a02c-78b8a2412db0-attr-9-name" class="er entityLabel">userId</text><rect height="21" width="45.453216552734375" y="192" x="107.88800048828125" class="er attributeBoxOdd"/><text style="dominant-baseline: middle; font-size: 10.2px;" transform="translate(112.88800048828125,202.5)" y="0" x="0" id="text-entity-Form-98b736a9-9996-5ea8-a02c-78b8a2412db0-attr-9-comment" class="er entityLabel">nullable</text></g><g transform="translate(29.706993103027344,333 )" id="entity-User-818c511a-4a32-5484-ba70-875d765a9175"><rect height="129" width="126.80453491210938" y="0" x="0" class="er entityBox"/><text style="dominant-baseline: middle; text-anchor: middle; font-size: 12px;" transform="translate(63.40226745605469,12)" y="0" x="0" id="text-entity-User-818c511a-4a32-5484-ba70-875d765a9175" class="er entityLabel">User</text><rect height="21" width="36.947052001953125" y="24" x="0" class="er attributeBoxOdd"/><text style="dominant-baseline: middle; font-size: 10.2px;" transform="translate(5,34.5)" y="0" x="0" id="text-entity-User-818c511a-4a32-5484-ba70-875d765a9175-attr-1-type" class="er entityLabel">String</text><rect height="21" width="66.0625" y="24" x="36.947052001953125" class="er attributeBoxOdd"/><text style="dominant-baseline: middle; font-size: 10.2px;" transform="translate(41.947052001953125,34.5)" y="0" x="0" id="text-entity-User-818c511a-4a32-5484-ba70-875d765a9175-attr-1-name" class="er entityLabel">id</text><rect height="21" width="23.79498291015625" y="24" x="103.00955200195312" class="er attributeBoxOdd"/><text style="dominant-baseline: middle; font-size: 10.2px;" transform="translate(108.00955200195312,34.5)" y="0" x="0" id="text-entity-User-818c511a-4a32-5484-ba70-875d765a9175-attr-1-comment" class="er entityLabel">PK</text><rect height="21" width="36.947052001953125" y="45" x="0" class="er attributeBoxEven"/><text style="dominant-baseline: middle; font-size: 10.2px;" transform="translate(5,55.5)" y="0" x="0" id="text-entity-User-818c511a-4a32-5484-ba70-875d765a9175-attr-2-type" class="er entityLabel">String</text><rect height="21" width="66.0625" y="45" x="36.947052001953125" class="er attributeBoxEven"/><text style="dominant-baseline: middle; font-size: 10.2px;" transform="translate(41.947052001953125,55.5)" y="0" x="0" id="text-entity-User-818c511a-4a32-5484-ba70-875d765a9175-attr-2-name" class="er entityLabel">name</text><rect height="21" width="23.79498291015625" y="45" x="103.00955200195312" class="er attributeBoxEven"/><text style="dominant-baseline: middle; font-size: 10.2px;" transform="translate(108.00955200195312,55.5)" y="0" x="0" id="text-entity-User-818c511a-4a32-5484-ba70-875d765a9175-attr-2-comment" class="er entityLabel"/><rect height="21" width="36.947052001953125" y="66" x="0" class="er attributeBoxOdd"/><text style="dominant-baseline: middle; font-size: 10.2px;" transform="translate(5,76.5)" y="0" x="0" id="text-entity-User-818c511a-4a32-5484-ba70-875d765a9175-attr-3-type" class="er entityLabel">String</text><rect height="21" width="66.0625" y="66" x="36.947052001953125" class="er attributeBoxOdd"/><text style="dominant-baseline: middle; font-size: 10.2px;" transform="translate(41.947052001953125,76.5)" y="0" x="0" id="text-entity-User-818c511a-4a32-5484-ba70-875d765a9175-attr-3-name" class="er entityLabel">email</text><rect height="21" width="23.79498291015625" y="66" x="103.00955200195312" class="er attributeBoxOdd"/><text style="dominant-baseline: middle; font-size: 10.2px;" transform="translate(108.00955200195312,76.5)" y="0" x="0" id="text-entity-User-818c511a-4a32-5484-ba70-875d765a9175-attr-3-comment" class="er entityLabel"/><rect height="21" width="36.947052001953125" y="87" x="0" class="er attributeBoxEven"/><text style="dominant-baseline: middle; font-size: 10.2px;" transform="translate(5,97.5)" y="0" x="0" id="text-entity-User-818c511a-4a32-5484-ba70-875d765a9175-attr-4-type" class="er entityLabel">String</text><rect height="21" width="66.0625" y="87" x="36.947052001953125" class="er attributeBoxEven"/><text style="dominant-baseline: middle; font-size: 10.2px;" transform="translate(41.947052001953125,97.5)" y="0" x="0" id="text-entity-User-818c511a-4a32-5484-ba70-875d765a9175-attr-4-name" class="er entityLabel">password</text><rect height="21" width="23.79498291015625" y="87" x="103.00955200195312" class="er attributeBoxEven"/><text style="dominant-baseline: middle; font-size: 10.2px;" transform="translate(108.00955200195312,97.5)" y="0" x="0" id="text-entity-User-818c511a-4a32-5484-ba70-875d765a9175-attr-4-comment" class="er entityLabel"/><rect height="21" width="36.947052001953125" y="108" x="0" class="er attributeBoxOdd"/><text style="dominant-baseline: middle; font-size: 10.2px;" transform="translate(5,118.5)" y="0" x="0" id="text-entity-User-818c511a-4a32-5484-ba70-875d765a9175-attr-5-type" class="er entityLabel">Int</text><rect height="21" width="66.0625" y="108" x="36.947052001953125" class="er attributeBoxOdd"/><text style="dominant-baseline: middle; font-size: 10.2px;" transform="translate(41.947052001953125,118.5)" y="0" x="0" id="text-entity-User-818c511a-4a32-5484-ba70-875d765a9175-attr-5-name" class="er entityLabel">accessLevel</text><rect height="21" width="23.79498291015625" y="108" x="103.00955200195312" class="er attributeBoxOdd"/><text style="dominant-baseline: middle; font-size: 10.2px;" transform="translate(108.00955200195312,118.5)" y="0" x="0" id="text-entity-User-818c511a-4a32-5484-ba70-875d765a9175-attr-5-comment" class="er entityLabel"/></g><g transform="translate(490.3220901489258,333 )" id="entity-Question-489e4f99-55a1-57b9-ae56-53457bd575f3"><rect height="129" width="137.95321655273438" y="0" x="0" class="er entityBox"/><text style="dominant-baseline: middle; text-anchor: middle; font-size: 12px;" transform="translate(68.97660827636719,12)" y="0" x="0" id="text-entity-Question-489e4f99-55a1-57b9-ae56-53457bd575f3" class="er entityLabel">Question</text><rect height="21" width="47.390625" y="24" x="0" class="er attributeBoxOdd"/><text style="dominant-baseline: middle; font-size: 10.2px;" transform="translate(5,34.5)" y="0" x="0" id="text-entity-Question-489e4f99-55a1-57b9-ae56-53457bd575f3-attr-1-type" class="er entityLabel">String</text><rect height="21" width="45.109375" y="24" x="47.390625" class="er attributeBoxOdd"/><text style="dominant-baseline: middle; font-size: 10.2px;" transform="translate(52.390625,34.5)" y="0" x="0" id="text-entity-Question-489e4f99-55a1-57b9-ae56-53457bd575f3-attr-1-name" class="er entityLabel">id</text><rect height="21" width="45.453216552734375" y="24" x="92.5" class="er attributeBoxOdd"/><text style="dominant-baseline: middle; font-size: 10.2px;" transform="translate(97.5,34.5)" y="0" x="0" id="text-entity-Question-489e4f99-55a1-57b9-ae56-53457bd575f3-attr-1-comment" class="er entityLabel">PK</text><rect height="21" width="47.390625" y="45" x="0" class="er attributeBoxEven"/><text style="dominant-baseline: middle; font-size: 10.2px;" transform="translate(5,55.5)" y="0" x="0" id="text-entity-Question-489e4f99-55a1-57b9-ae56-53457bd575f3-attr-2-type" class="er entityLabel">String</text><rect height="21" width="45.109375" y="45" x="47.390625" class="er attributeBoxEven"/><text style="dominant-baseline: middle; font-size: 10.2px;" transform="translate(52.390625,55.5)" y="0" x="0" id="text-entity-Question-489e4f99-55a1-57b9-ae56-53457bd575f3-attr-2-name" class="er entityLabel">text</text><rect height="21" width="45.453216552734375" y="45" x="92.5" class="er attributeBoxEven"/><text style="dominant-baseline: middle; font-size: 10.2px;" transform="translate(97.5,55.5)" y="0" x="0" id="text-entity-Question-489e4f99-55a1-57b9-ae56-53457bd575f3-attr-2-comment" class="er entityLabel"/><rect height="21" width="47.390625" y="66" x="0" class="er attributeBoxOdd"/><text style="dominant-baseline: middle; font-size: 10.2px;" transform="translate(5,76.5)" y="0" x="0" id="text-entity-Question-489e4f99-55a1-57b9-ae56-53457bd575f3-attr-3-type" class="er entityLabel">Boolean</text><rect height="21" width="45.109375" y="66" x="47.390625" class="er attributeBoxOdd"/><text style="dominant-baseline: middle; font-size: 10.2px;" transform="translate(52.390625,76.5)" y="0" x="0" id="text-entity-Question-489e4f99-55a1-57b9-ae56-53457bd575f3-attr-3-name" class="er entityLabel">isPublic</text><rect height="21" width="45.453216552734375" y="66" x="92.5" class="er attributeBoxOdd"/><text style="dominant-baseline: middle; font-size: 10.2px;" transform="translate(97.5,76.5)" y="0" x="0" id="text-entity-Question-489e4f99-55a1-57b9-ae56-53457bd575f3-attr-3-comment" class="er entityLabel"/><rect height="21" width="47.390625" y="87" x="0" class="er attributeBoxEven"/><text style="dominant-baseline: middle; font-size: 10.2px;" transform="translate(5,97.5)" y="0" x="0" id="text-entity-Question-489e4f99-55a1-57b9-ae56-53457bd575f3-attr-4-type" class="er entityLabel">String</text><rect height="21" width="45.109375" y="87" x="47.390625" class="er attributeBoxEven"/><text style="dominant-baseline: middle; font-size: 10.2px;" transform="translate(52.390625,97.5)" y="0" x="0" id="text-entity-Question-489e4f99-55a1-57b9-ae56-53457bd575f3-attr-4-name" class="er entityLabel">type</text><rect height="21" width="45.453216552734375" y="87" x="92.5" class="er attributeBoxEven"/><text style="dominant-baseline: middle; font-size: 10.2px;" transform="translate(97.5,97.5)" y="0" x="0" id="text-entity-Question-489e4f99-55a1-57b9-ae56-53457bd575f3-attr-4-comment" class="er entityLabel"/><rect height="21" width="47.390625" y="108" x="0" class="er attributeBoxOdd"/><text style="dominant-baseline: middle; font-size: 10.2px;" transform="translate(5,118.5)" y="0" x="0" id="text-entity-Question-489e4f99-55a1-57b9-ae56-53457bd575f3-attr-5-type" class="er entityLabel">String</text><rect height="21" width="45.109375" y="108" x="47.390625" class="er attributeBoxOdd"/><text style="dominant-baseline: middle; font-size: 10.2px;" transform="translate(52.390625,118.5)" y="0" x="0" id="text-entity-Question-489e4f99-55a1-57b9-ae56-53457bd575f3-attr-5-name" class="er entityLabel">formId</text><rect height="21" width="45.453216552734375" y="108" x="92.5" class="er attributeBoxOdd"/><text style="dominant-baseline: middle; font-size: 10.2px;" transform="translate(97.5,118.5)" y="0" x="0" id="text-entity-Question-489e4f99-55a1-57b9-ae56-53457bd575f3-attr-5-comment" class="er entityLabel">nullable</text></g><g transform="translate(20,562 )" id="entity-Option-a1151f7a-1a6d-5e23-babc-fb867934430d"><rect height="129" width="139.7471923828125" y="0" x="0" class="er entityBox"/><text style="dominant-baseline: middle; text-anchor: middle; font-size: 12px;" transform="translate(69.87359619140625,12)" y="0" x="0" id="text-entity-Option-a1151f7a-1a6d-5e23-babc-fb867934430d" class="er entityLabel">Option</text><rect height="21" width="36.947052001953125" y="24" x="0" class="er attributeBoxOdd"/><text style="dominant-baseline: middle; font-size: 10.2px;" transform="translate(5,34.5)" y="0" x="0" id="text-entity-Option-a1151f7a-1a6d-5e23-babc-fb867934430d-attr-1-type" class="er entityLabel">String</text><rect height="21" width="57.346923828125" y="24" x="36.947052001953125" class="er attributeBoxOdd"/><text style="dominant-baseline: middle; font-size: 10.2px;" transform="translate(41.947052001953125,34.5)" y="0" x="0" id="text-entity-Option-a1151f7a-1a6d-5e23-babc-fb867934430d-attr-1-name" class="er entityLabel">id</text><rect height="21" width="45.453216552734375" y="24" x="94.29397583007812" class="er attributeBoxOdd"/><text style="dominant-baseline: middle; font-size: 10.2px;" transform="translate(99.29397583007812,34.5)" y="0" x="0" id="text-entity-Option-a1151f7a-1a6d-5e23-babc-fb867934430d-attr-1-comment" class="er entityLabel">PK</text><rect height="21" width="36.947052001953125" y="45" x="0" class="er attributeBoxEven"/><text style="dominant-baseline: middle; font-size: 10.2px;" transform="translate(5,55.5)" y="0" x="0" id="text-entity-Option-a1151f7a-1a6d-5e23-babc-fb867934430d-attr-2-type" class="er entityLabel">String</text><rect height="21" width="57.346923828125" y="45" x="36.947052001953125" class="er attributeBoxEven"/><text style="dominant-baseline: middle; font-size: 10.2px;" transform="translate(41.947052001953125,55.5)" y="0" x="0" id="text-entity-Option-a1151f7a-1a6d-5e23-babc-fb867934430d-attr-2-name" class="er entityLabel">text</text><rect height="21" width="45.453216552734375" y="45" x="94.29397583007812" class="er attributeBoxEven"/><text style="dominant-baseline: middle; font-size: 10.2px;" transform="translate(99.29397583007812,55.5)" y="0" x="0" id="text-entity-Option-a1151f7a-1a6d-5e23-babc-fb867934430d-attr-2-comment" class="er entityLabel"/><rect height="21" width="36.947052001953125" y="66" x="0" class="er attributeBoxOdd"/><text style="dominant-baseline: middle; font-size: 10.2px;" transform="translate(5,76.5)" y="0" x="0" id="text-entity-Option-a1151f7a-1a6d-5e23-babc-fb867934430d-attr-3-type" class="er entityLabel">Int</text><rect height="21" width="57.346923828125" y="66" x="36.947052001953125" class="er attributeBoxOdd"/><text style="dominant-baseline: middle; font-size: 10.2px;" transform="translate(41.947052001953125,76.5)" y="0" x="0" id="text-entity-Option-a1151f7a-1a6d-5e23-babc-fb867934430d-attr-3-name" class="er entityLabel">value</text><rect height="21" width="45.453216552734375" y="66" x="94.29397583007812" class="er attributeBoxOdd"/><text style="dominant-baseline: middle; font-size: 10.2px;" transform="translate(99.29397583007812,76.5)" y="0" x="0" id="text-entity-Option-a1151f7a-1a6d-5e23-babc-fb867934430d-attr-3-comment" class="er entityLabel"/><rect height="21" width="36.947052001953125" y="87" x="0" class="er attributeBoxEven"/><text style="dominant-baseline: middle; font-size: 10.2px;" transform="translate(5,97.5)" y="0" x="0" id="text-entity-Option-a1151f7a-1a6d-5e23-babc-fb867934430d-attr-4-type" class="er entityLabel">String</text><rect height="21" width="57.346923828125" y="87" x="36.947052001953125" class="er attributeBoxEven"/><text style="dominant-baseline: middle; font-size: 10.2px;" transform="translate(41.947052001953125,97.5)" y="0" x="0" id="text-entity-Option-a1151f7a-1a6d-5e23-babc-fb867934430d-attr-4-name" class="er entityLabel">emoji</text><rect height="21" width="45.453216552734375" y="87" x="94.29397583007812" class="er attributeBoxEven"/><text style="dominant-baseline: middle; font-size: 10.2px;" transform="translate(99.29397583007812,97.5)" y="0" x="0" id="text-entity-Option-a1151f7a-1a6d-5e23-babc-fb867934430d-attr-4-comment" class="er entityLabel">nullable</text><rect height="21" width="36.947052001953125" y="108" x="0" class="er attributeBoxOdd"/><text style="dominant-baseline: middle; font-size: 10.2px;" transform="translate(5,118.5)" y="0" x="0" id="text-entity-Option-a1151f7a-1a6d-5e23-babc-fb867934430d-attr-5-type" class="er entityLabel">String</text><rect height="21" width="57.346923828125" y="108" x="36.947052001953125" class="er attributeBoxOdd"/><text style="dominant-baseline: middle; font-size: 10.2px;" transform="translate(41.947052001953125,118.5)" y="0" x="0" id="text-entity-Option-a1151f7a-1a6d-5e23-babc-fb867934430d-attr-5-name" class="er entityLabel">questionId</text><rect height="21" width="45.453216552734375" y="108" x="94.29397583007812" class="er attributeBoxOdd"/><text style="dominant-baseline: middle; font-size: 10.2px;" transform="translate(99.29397583007812,118.5)" y="0" x="0" id="text-entity-Option-a1151f7a-1a6d-5e23-babc-fb867934430d-attr-5-comment" class="er entityLabel"/></g><g transform="translate(917.1163940429688,791 )" id="entity-Session-087c087e-5b46-5a6f-a710-5a009604ebd7"><rect height="87" width="153.34121704101562" y="0" x="0" class="er entityBox"/><text style="dominant-baseline: middle; text-anchor: middle; font-size: 12px;" transform="translate(76.67060852050781,12)" y="0" x="0" id="text-entity-Session-087c087e-5b46-5a6f-a710-5a009604ebd7" class="er entityLabel">Session</text><rect height="21" width="54.113128662109375" y="24" x="0" class="er attributeBoxOdd"/><text style="dominant-baseline: middle; font-size: 10.2px;" transform="translate(5,34.5)" y="0" x="0" id="text-entity-Session-087c087e-5b46-5a6f-a710-5a009604ebd7-attr-1-type" class="er entityLabel">String</text><rect height="21" width="53.774871826171875" y="24" x="54.113128662109375" class="er attributeBoxOdd"/><text style="dominant-baseline: middle; font-size: 10.2px;" transform="translate(59.113128662109375,34.5)" y="0" x="0" id="text-entity-Session-087c087e-5b46-5a6f-a710-5a009604ebd7-attr-1-name" class="er entityLabel">id</text><rect height="21" width="45.453216552734375" y="24" x="107.88800048828125" class="er attributeBoxOdd"/><text style="dominant-baseline: middle; font-size: 10.2px;" transform="translate(112.88800048828125,34.5)" y="0" x="0" id="text-entity-Session-087c087e-5b46-5a6f-a710-5a009604ebd7-attr-1-comment" class="er entityLabel">PK</text><rect height="21" width="54.113128662109375" y="45" x="0" class="er attributeBoxEven"/><text style="dominant-baseline: middle; font-size: 10.2px;" transform="translate(5,55.5)" y="0" x="0" id="text-entity-Session-087c087e-5b46-5a6f-a710-5a009604ebd7-attr-2-type" class="er entityLabel">DateTime</text><rect height="21" width="53.774871826171875" y="45" x="54.113128662109375" class="er attributeBoxEven"/><text style="dominant-baseline: middle; font-size: 10.2px;" transform="translate(59.113128662109375,55.5)" y="0" x="0" id="text-entity-Session-087c087e-5b46-5a6f-a710-5a009604ebd7-attr-2-name" class="er entityLabel">createdAt</text><rect height="21" width="45.453216552734375" y="45" x="107.88800048828125" class="er attributeBoxEven"/><text style="dominant-baseline: middle; font-size: 10.2px;" transform="translate(112.88800048828125,55.5)" y="0" x="0" id="text-entity-Session-087c087e-5b46-5a6f-a710-5a009604ebd7-attr-2-comment" class="er entityLabel"/><rect height="21" width="54.113128662109375" y="66" x="0" class="er attributeBoxOdd"/><text style="dominant-baseline: middle; font-size: 10.2px;" transform="translate(5,76.5)" y="0" x="0" id="text-entity-Session-087c087e-5b46-5a6f-a710-5a009604ebd7-attr-3-type" class="er entityLabel">String</text><rect height="21" width="53.774871826171875" y="66" x="54.113128662109375" class="er attributeBoxOdd"/><text style="dominant-baseline: middle; font-size: 10.2px;" transform="translate(59.113128662109375,76.5)" y="0" x="0" id="text-entity-Session-087c087e-5b46-5a6f-a710-5a009604ebd7-attr-3-name" class="er entityLabel">formId</text><rect height="21" width="45.453216552734375" y="66" x="107.88800048828125" class="er attributeBoxOdd"/><text style="dominant-baseline: middle; font-size: 10.2px;" transform="translate(112.88800048828125,76.5)" y="0" x="0" id="text-entity-Session-087c087e-5b46-5a6f-a710-5a009604ebd7-attr-3-comment" class="er entityLabel">nullable</text></g><g transform="translate(938.9766082763672,572.5 )" id="entity-Response-79299989-89c0-500c-bb64-28b839e02fd3"><rect height="108" width="139.7471923828125" y="0" x="0" class="er entityBox"/><text style="dominant-baseline: middle; text-anchor: middle; font-size: 12px;" transform="translate(69.87359619140625,12)" y="0" x="0" id="text-entity-Response-79299989-89c0-500c-bb64-28b839e02fd3" class="er entityLabel">Response</text><rect height="21" width="36.947052001953125" y="24" x="0" class="er attributeBoxOdd"/><text style="dominant-baseline: middle; font-size: 10.2px;" transform="translate(5,34.5)" y="0" x="0" id="text-entity-Response-79299989-89c0-500c-bb64-28b839e02fd3-attr-1-type" class="er entityLabel">String</text><rect height="21" width="57.346923828125" y="24" x="36.947052001953125" class="er attributeBoxOdd"/><text style="dominant-baseline: middle; font-size: 10.2px;" transform="translate(41.947052001953125,34.5)" y="0" x="0" id="text-entity-Response-79299989-89c0-500c-bb64-28b839e02fd3-attr-1-name" class="er entityLabel">id</text><rect height="21" width="45.453216552734375" y="24" x="94.29397583007812" class="er attributeBoxOdd"/><text style="dominant-baseline: middle; font-size: 10.2px;" transform="translate(99.29397583007812,34.5)" y="0" x="0" id="text-entity-Response-79299989-89c0-500c-bb64-28b839e02fd3-attr-1-comment" class="er entityLabel">PK</text><rect height="21" width="36.947052001953125" y="45" x="0" class="er attributeBoxEven"/><text style="dominant-baseline: middle; font-size: 10.2px;" transform="translate(5,55.5)" y="0" x="0" id="text-entity-Response-79299989-89c0-500c-bb64-28b839e02fd3-attr-2-type" class="er entityLabel">String</text><rect height="21" width="57.346923828125" y="45" x="36.947052001953125" class="er attributeBoxEven"/><text style="dominant-baseline: middle; font-size: 10.2px;" transform="translate(41.947052001953125,55.5)" y="0" x="0" id="text-entity-Response-79299989-89c0-500c-bb64-28b839e02fd3-attr-2-name" class="er entityLabel">value</text><rect height="21" width="45.453216552734375" y="45" x="94.29397583007812" class="er attributeBoxEven"/><text style="dominant-baseline: middle; font-size: 10.2px;" transform="translate(99.29397583007812,55.5)" y="0" x="0" id="text-entity-Response-79299989-89c0-500c-bb64-28b839e02fd3-attr-2-comment" class="er entityLabel"/><rect height="21" width="36.947052001953125" y="66" x="0" class="er attributeBoxOdd"/><text style="dominant-baseline: middle; font-size: 10.2px;" transform="translate(5,76.5)" y="0" x="0" id="text-entity-Response-79299989-89c0-500c-bb64-28b839e02fd3-attr-3-type" class="er entityLabel">String</text><rect height="21" width="57.346923828125" y="66" x="36.947052001953125" class="er attributeBoxOdd"/><text style="dominant-baseline: middle; font-size: 10.2px;" transform="translate(41.947052001953125,76.5)" y="0" x="0" id="text-entity-Response-79299989-89c0-500c-bb64-28b839e02fd3-attr-3-name" class="er entityLabel">questionId</text><rect height="21" width="45.453216552734375" y="66" x="94.29397583007812" class="er attributeBoxOdd"/><text style="dominant-baseline: middle; font-size: 10.2px;" transform="translate(99.29397583007812,76.5)" y="0" x="0" id="text-entity-Response-79299989-89c0-500c-bb64-28b839e02fd3-attr-3-comment" class="er entityLabel"/><rect height="21" width="36.947052001953125" y="87" x="0" class="er attributeBoxEven"/><text style="dominant-baseline: middle; font-size: 10.2px;" transform="translate(5,97.5)" y="0" x="0" id="text-entity-Response-79299989-89c0-500c-bb64-28b839e02fd3-attr-4-type" class="er entityLabel">String</text><rect height="21" width="57.346923828125" y="87" x="36.947052001953125" class="er attributeBoxEven"/><text style="dominant-baseline: middle; font-size: 10.2px;" transform="translate(41.947052001953125,97.5)" y="0" x="0" id="text-entity-Response-79299989-89c0-500c-bb64-28b839e02fd3-attr-4-name" class="er entityLabel">sessionId</text><rect height="21" width="45.453216552734375" y="87" x="94.29397583007812" class="er attributeBoxEven"/><text style="dominant-baseline: middle; font-size: 10.2px;" transform="translate(99.29397583007812,97.5)" y="0" x="0" id="text-entity-Response-79299989-89c0-500c-bb64-28b839e02fd3-attr-4-comment" class="er entityLabel">nullable</text></g><g transform="translate(593.7870025634766,604 )" id="entity-Topic-fe823971-3715-5962-88bf-ebbefe3baac2"><rect height="45" width="100" y="0" x="0" class="er entityBox"/><text style="dominant-baseline: middle; text-anchor: middle; font-size: 12px;" transform="translate(50,12)" y="0" x="0" id="text-entity-Topic-fe823971-3715-5962-88bf-ebbefe3baac2" class="er entityLabel">Topic</text><rect height="21" width="38.09375" y="24" x="0" class="er attributeBoxOdd"/><text style="dominant-baseline: middle; font-size: 10.2px;" transform="translate(5,34.5)" y="0" x="0" id="text-entity-Topic-fe823971-3715-5962-88bf-ebbefe3baac2-attr-1-type" class="er entityLabel">String</text><rect height="21" width="36.964569091796875" y="24" x="38.09375" class="er attributeBoxOdd"/><text style="dominant-baseline: middle; font-size: 10.2px;" transform="translate(43.09375,34.5)" y="0" x="0" id="text-entity-Topic-fe823971-3715-5962-88bf-ebbefe3baac2-attr-1-name" class="er entityLabel">name</text><rect height="21" width="24.941680908203125" y="24" x="75.05831909179688" class="er attributeBoxOdd"/><text style="dominant-baseline: middle; font-size: 10.2px;" transform="translate(80.05831909179688,34.5)" y="0" x="0" id="text-entity-Topic-fe823971-3715-5962-88bf-ebbefe3baac2-attr-1-comment" class="er entityLabel">PK</text></g><rect height="14" width="23.34765625" y="218.89767456054688" x="180.30526733398438" class="er relationshipLabelBox"/><text style="text-anchor: middle; dominant-baseline: middle; font-size: 12px;" y="225.89767456054688" x="191.97909545898438" id="rel1" class="er relationshipLabel">user</text><rect height="14" width="51.375" y="275.9574279785156" x="483.53466796875" class="er relationshipLabelBox"/><text style="text-anchor: middle; dominant-baseline: middle; font-size: 12px;" y="282.9574279785156" x="509.22216796875" id="rel2" class="er relationshipLabel">questions</text><rect height="14" width="46.6875" y="714.87939453125" x="320.00323486328125" class="er relationshipLabelBox"/><text style="text-anchor: middle; dominant-baseline: middle; font-size: 12px;" y="721.87939453125" x="343.34698486328125" id="rel3" class="er relationshipLabel">sessions</text><rect height="14" width="31.359375" y="469.30377197265625" x="371.5855407714844" class="er relationshipLabelBox"/><text style="text-anchor: middle; dominant-baseline: middle; font-size: 12px;" y="476.30377197265625" x="387.2652282714844" id="rel4" class="er relationshipLabel">topics</text><rect height="14" width="30" y="230.69247436523438" x="216.976806640625" class="er relationshipLabelBox"/><text style="text-anchor: middle; dominant-baseline: middle; font-size: 12px;" y="237.69247436523438" x="231.976806640625" id="rel5" class="er relationshipLabel">forms</text><rect height="14" width="24.00390625" y="249.368408203125" x="563.9353637695312" class="er relationshipLabelBox"/><text style="text-anchor: middle; dominant-baseline: middle; font-size: 12px;" y="256.368408203125" x="575.9373168945312" id="rel6" class="er relationshipLabel">form</text><rect height="14" width="38.703125" y="458.525146484375" x="237.39828491210938" class="er relationshipLabelBox"/><text style="text-anchor: middle; dominant-baseline: middle; font-size: 12px;" y="465.525146484375" x="256.7498474121094" id="rel7" class="er relationshipLabel">options</text><rect height="14" width="49.69140625" y="468.52301025390625" x="789.8663940429688" class="er relationshipLabelBox"/><text style="text-anchor: middle; dominant-baseline: middle; font-size: 12px;" y="475.52301025390625" x="814.7120971679688" id="rel8" class="er relationshipLabel">response</text><rect height="14" width="31.359375" y="531.0481567382812" x="565.3898315429688" class="er relationshipLabelBox"/><text style="text-anchor: middle; dominant-baseline: middle; font-size: 12px;" y="538.0481567382812" x="581.0695190429688" id="rel9" class="er relationshipLabel">topics</text><rect height="14" width="45.375" y="464.3476257324219" x="271.2890319824219" class="er relationshipLabelBox"/><text style="text-anchor: middle; dominant-baseline: middle; font-size: 12px;" y="471.3476257324219" x="293.9765319824219" id="rel10" class="er relationshipLabel">question</text><rect height="14" width="55.375" y="730.0182495117188" x="1008.697021484375" class="er relationshipLabelBox"/><text style="text-anchor: middle; dominant-baseline: middle; font-size: 12px;" y="737.0182495117188" x="1036.384521484375" id="rel11" class="er relationshipLabel">responses</text><rect height="14" width="28" y="282.55364990234375" x="1080.4222412109375" class="er relationshipLabelBox"/><text style="text-anchor: middle; dominant-baseline: middle; font-size: 12px;" y="289.55364990234375" x="1094.4222412109375" id="rel12" class="er relationshipLabel">Form</text><rect height="14" width="45.375" y="460.71929931640625" x="826.3865966796875" class="er relationshipLabelBox"/><text style="text-anchor: middle; dominant-baseline: middle; font-size: 12px;" y="467.71929931640625" x="849.0740966796875" id="rel13" class="er relationshipLabel">question</text><rect height="14" width="42.703125" y="720.6013793945312" x="732.6546630859375" class="er relationshipLabelBox"/><text style="text-anchor: middle; dominant-baseline: middle; font-size: 12px;" y="727.6013793945312" x="754.0062255859375" id="rel14" class="er relationshipLabel">Session</text><rect height="14" width="24.00390625" y="331.67840576171875" x="726.6646728515625" class="er relationshipLabelBox"/><text style="text-anchor: middle; dominant-baseline: middle; font-size: 12px;" y="338.67840576171875" x="738.6666259765625" id="rel15" class="er relationshipLabel">form</text><rect height="14" width="45.375" y="490.0310363769531" x="748.0194702148438" class="er relationshipLabelBox"/><text style="text-anchor: middle; dominant-baseline: middle; font-size: 12px;" y="497.0310363769531" x="770.7069702148438" id="rel16" class="er relationshipLabel">question</text></svg>